<?xml version="1.0" encoding="UTF-8" standalone="no"?>
<!DOCTYPE svg PUBLIC "-//W3C//DTD SVG 1.1//EN"
 "http://www.w3.org/Graphics/SVG/1.1/DTD/svg11.dtd">
<!-- Generated by graphviz version 2.44.1 (20200704.0521)
 -->
<!-- Title: abc Pages: 1 -->
<svg width="96pt" height="204pt"
 viewBox="0.00 0.00 96.00 204.00" xmlns="http://www.w3.org/2000/svg" xmlns:xlink="http://www.w3.org/1999/xlink">
<g id="graph0" class="graph" transform="scale(1 1) rotate(0) translate(4 200)">
<title>abc</title>
<polygon fill="white" stroke="transparent" points="-4,4 -4,-200 92,-200 92,4 -4,4"/>
<g id="clust1" class="cluster">
<title>cluster_cond</title>
<polygon fill="none" stroke="black" points="8,-8 8,-132 80,-132 80,-8 8,-8"/>
</g>
<!-- a -->
<g id="node1" class="node">
<title>a</title>
<polygon fill="none" stroke="black" points="71.5,-196 16.5,-196 16.5,-160 71.5,-160 71.5,-196"/>
<text text-anchor="middle" x="44" y="-174.3" font-family="Times,serif" font-size="14.00">a = 3</text>
</g>
<!-- cond -->
<g id="node2" class="node">
<title>cond</title>
<polygon fill="none" stroke="black" points="71.5,-124 16.5,-124 16.5,-88 71.5,-88 71.5,-124"/>
<text text-anchor="middle" x="44" y="-102.3" font-family="Times,serif" font-size="14.00">a &gt; 4</text>
</g>
<!-- a&#45;&gt;cond -->
<g id="edge1" class="edge">
<title>a&#45;&gt;cond</title>
<path fill="none" stroke="red" d="M44,-159.7C44,-151.98 44,-142.71 44,-134.11"/>
<polygon fill="red" stroke="red" points="47.5,-134.1 44,-124.1 40.5,-134.1 47.5,-134.1"/>
</g>
<!-- b -->
<g id="node3" class="node">
<title>b</title>
<polygon fill="none" stroke="black" points="72,-52 16,-52 16,-16 72,-16 72,-52"/>
<text text-anchor="middle" x="44" y="-30.3" font-family="Times,serif" font-size="14.00">b = 1</text>
</g>
<!-- cond&#45;&gt;b -->
<g id="edge2" class="edge">
<title>cond&#45;&gt;b</title>
<path fill="none" stroke="red" d="M44,-87.7C44,-79.98 44,-70.71 44,-62.11"/>
<polygon fill="red" stroke="red" points="47.5,-62.1 44,-52.1 40.5,-62.1 47.5,-62.1"/>
</g>
</g>
</svg>
