<?xml version="1.0" encoding="UTF-8" standalone="no"?>
<!DOCTYPE svg PUBLIC "-//W3C//DTD SVG 1.1//EN"
 "http://www.w3.org/Graphics/SVG/1.1/DTD/svg11.dtd">
<!-- Generated by graphviz version 2.44.1 (20200704.0521)
 -->
<!-- Title: abc Pages: 1 -->
<svg width="350pt" height="188pt"
 viewBox="0.00 0.00 350.00 188.00" xmlns="http://www.w3.org/2000/svg" xmlns:xlink="http://www.w3.org/1999/xlink">
<g id="graph0" class="graph" transform="scale(1 1) rotate(0) translate(4 184)">
<title>abc</title>
<polygon fill="white" stroke="transparent" points="-4,4 -4,-184 346,-184 346,4 -4,4"/>
<!-- b1 -->
<g id="node1" class="node">
<title>b1</title>
<polygon fill="none" stroke="black" points="88,-36 32,-36 32,0 88,0 88,-36"/>
<text text-anchor="middle" x="60" y="-14.3" font-family="Times,serif" font-size="14.00">b = 1</text>
</g>
<!-- b2 -->
<g id="node2" class="node">
<title>b2</title>
<polygon fill="none" stroke="black" points="162,-36 106,-36 106,0 162,0 162,-36"/>
<text text-anchor="middle" x="134" y="-14.3" font-family="Times,serif" font-size="14.00">b = 2</text>
</g>
<!-- b3 -->
<g id="node3" class="node">
<title>b3</title>
<polygon fill="none" stroke="black" points="236,-36 180,-36 180,0 236,0 236,-36"/>
<text text-anchor="middle" x="208" y="-14.3" font-family="Times,serif" font-size="14.00">b = 3</text>
</g>
<!-- b4 -->
<g id="node4" class="node">
<title>b4</title>
<polygon fill="none" stroke="black" points="314,-36 254,-36 254,0 314,0 314,-36"/>
<text text-anchor="middle" x="284" y="-14.3" font-family="Times,serif" font-size="14.00">b = ...</text>
</g>
<!-- dot -->
<g id="node5" class="node">
<title>dot</title>
<polygon fill="none" stroke="black" points="54,-180 0,-180 0,-144 54,-144 54,-180"/>
<text text-anchor="middle" x="27" y="-158.3" font-family="Times,serif" font-size="14.00">...</text>
</g>
<!-- branch -->
<g id="node6" class="node">
<title>branch</title>
<polygon fill="none" stroke="black" points="250.5,-108 91.5,-108 91.5,-72 250.5,-72 250.5,-108"/>
<text text-anchor="middle" x="171" y="-86.3" font-family="Times,serif" font-size="14.00">switch(a, 1, 2, 3, ...)</text>
</g>
<!-- dot&#45;&gt;branch -->
<g id="edge5" class="edge">
<title>dot&#45;&gt;branch</title>
<path fill="none" stroke="black" d="M63.21,-143.4C85.45,-132.58 113.81,-118.8 135.86,-108.08"/>
<polygon fill="black" stroke="black" points="61.55,-140.31 54.09,-147.83 64.61,-146.61 61.55,-140.31"/>
</g>
<!-- branch&#45;&gt;b1 -->
<g id="edge6" class="edge">
<title>branch&#45;&gt;b1</title>
<path fill="none" stroke="red" d="M143.85,-71.88C129.47,-62.81 111.62,-51.55 96.09,-41.76"/>
<polygon fill="red" stroke="red" points="97.58,-38.56 87.26,-36.19 93.85,-44.48 97.58,-38.56"/>
</g>
<!-- branch&#45;&gt;b2 -->
<g id="edge7" class="edge">
<title>branch&#45;&gt;b2</title>
<path fill="none" stroke="red" d="M161.85,-71.7C157.6,-63.64 152.44,-53.89 147.73,-44.98"/>
<polygon fill="red" stroke="red" points="150.81,-43.31 143.04,-36.1 144.62,-46.58 150.81,-43.31"/>
</g>
<!-- branch&#45;&gt;b3 -->
<g id="edge8" class="edge">
<title>branch&#45;&gt;b3</title>
<path fill="none" stroke="red" d="M180.15,-71.7C184.4,-63.64 189.56,-53.89 194.27,-44.98"/>
<polygon fill="red" stroke="red" points="197.38,-46.58 198.96,-36.1 191.19,-43.31 197.38,-46.58"/>
</g>
<!-- branch&#45;&gt;b4 -->
<g id="edge9" class="edge">
<title>branch&#45;&gt;b4</title>
<path fill="none" stroke="red" d="M198.64,-71.88C213.42,-62.72 231.79,-51.34 247.7,-41.48"/>
<polygon fill="red" stroke="red" points="249.59,-44.43 256.25,-36.19 245.91,-38.48 249.59,-44.43"/>
</g>
<!-- a -->
<g id="node7" class="node">
<title>a</title>
<polygon fill="none" stroke="black" points="126,-180 72,-180 72,-144 126,-144 126,-180"/>
<text text-anchor="middle" x="99" y="-158.3" font-family="Times,serif" font-size="14.00">a</text>
</g>
<!-- a&#45;&gt;branch -->
<g id="edge1" class="edge">
<title>a&#45;&gt;branch</title>
<path fill="none" stroke="black" d="M124.22,-136.48C133.86,-127.11 144.63,-116.64 153.41,-108.1"/>
<polygon fill="black" stroke="black" points="121.53,-134.22 116.8,-143.7 126.41,-139.24 121.53,-134.22"/>
</g>
<!-- 1 -->
<g id="node8" class="node">
<title>1</title>
<polygon fill="none" stroke="black" points="198,-180 144,-180 144,-144 198,-144 198,-180"/>
<text text-anchor="middle" x="171" y="-158.3" font-family="Times,serif" font-size="14.00">1</text>
</g>
<!-- 1&#45;&gt;branch -->
<g id="edge2" class="edge">
<title>1&#45;&gt;branch</title>
<path fill="none" stroke="black" d="M171,-133.67C171,-125.05 171,-115.79 171,-108.1"/>
<polygon fill="black" stroke="black" points="167.5,-133.7 171,-143.7 174.5,-133.7 167.5,-133.7"/>
</g>
<!-- 2 -->
<g id="node9" class="node">
<title>2</title>
<polygon fill="none" stroke="black" points="270,-180 216,-180 216,-144 270,-144 270,-180"/>
<text text-anchor="middle" x="243" y="-158.3" font-family="Times,serif" font-size="14.00">2</text>
</g>
<!-- 2&#45;&gt;branch -->
<g id="edge3" class="edge">
<title>2&#45;&gt;branch</title>
<path fill="none" stroke="black" d="M217.78,-136.48C208.14,-127.11 197.37,-116.64 188.59,-108.1"/>
<polygon fill="black" stroke="black" points="215.59,-139.24 225.2,-143.7 220.47,-134.22 215.59,-139.24"/>
</g>
<!-- 3 -->
<g id="node10" class="node">
<title>3</title>
<polygon fill="none" stroke="black" points="342,-180 288,-180 288,-144 342,-144 342,-180"/>
<text text-anchor="middle" x="315" y="-158.3" font-family="Times,serif" font-size="14.00">3</text>
</g>
<!-- 3&#45;&gt;branch -->
<g id="edge4" class="edge">
<title>3&#45;&gt;branch</title>
<path fill="none" stroke="black" d="M278.79,-143.4C256.55,-132.58 228.19,-118.8 206.14,-108.08"/>
<polygon fill="black" stroke="black" points="277.39,-146.61 287.91,-147.83 280.45,-140.31 277.39,-146.61"/>
</g>
</g>
</svg>
