<?xml version="1.0" encoding="UTF-8" standalone="no"?>
<!DOCTYPE svg PUBLIC "-//W3C//DTD SVG 1.1//EN"
 "http://www.w3.org/Graphics/SVG/1.1/DTD/svg11.dtd">
<!-- Generated by graphviz version 2.44.1 (20200704.0521)
 -->
<!-- Title: abc Pages: 1 -->
<svg width="134pt" height="116pt"
 viewBox="0.00 0.00 134.00 116.00" xmlns="http://www.w3.org/2000/svg" xmlns:xlink="http://www.w3.org/1999/xlink">
<g id="graph0" class="graph" transform="scale(1 1) rotate(0) translate(4 112)">
<title>abc</title>
<polygon fill="white" stroke="transparent" points="-4,4 -4,-112 130,-112 130,4 -4,4"/>
<!-- a -->
<g id="node1" class="node">
<title>a</title>
<polygon fill="none" stroke="black" points="105.5,-36 20.5,-36 20.5,0 105.5,0 105.5,-36"/>
<text text-anchor="middle" x="63" y="-14.3" font-family="Times,serif" font-size="14.00">a = 3 + 4</text>
</g>
<!-- 3 -->
<g id="node2" class="node">
<title>3</title>
<polygon fill="none" stroke="black" points="54,-108 0,-108 0,-72 54,-72 54,-108"/>
<text text-anchor="middle" x="27" y="-86.3" font-family="Times,serif" font-size="14.00">3</text>
</g>
<!-- 3&#45;&gt;a -->
<g id="edge1" class="edge">
<title>3&#45;&gt;a</title>
<path fill="none" stroke="black" d="M40.48,-62.8C45.07,-53.87 50.08,-44.13 54.2,-36.1"/>
<polygon fill="black" stroke="black" points="37.36,-61.2 35.9,-71.7 43.58,-64.4 37.36,-61.2"/>
</g>
<!-- 4 -->
<g id="node3" class="node">
<title>4</title>
<polygon fill="none" stroke="black" points="126,-108 72,-108 72,-72 126,-72 126,-108"/>
<text text-anchor="middle" x="99" y="-86.3" font-family="Times,serif" font-size="14.00">4</text>
</g>
<!-- 4&#45;&gt;a -->
<g id="edge2" class="edge">
<title>4&#45;&gt;a</title>
<path fill="none" stroke="black" d="M85.52,-62.8C80.93,-53.87 75.92,-44.13 71.8,-36.1"/>
<polygon fill="black" stroke="black" points="82.42,-64.4 90.1,-71.7 88.64,-61.2 82.42,-64.4"/>
</g>
</g>
</svg>
