<?xml version="1.0" encoding="UTF-8" standalone="no"?>
<!DOCTYPE svg PUBLIC "-//W3C//DTD SVG 1.1//EN"
 "http://www.w3.org/Graphics/SVG/1.1/DTD/svg11.dtd">
<!-- Generated by graphviz version 2.44.1 (20200704.0521)
 -->
<!-- Title: abc Pages: 1 -->
<svg width="320pt" height="220pt"
 viewBox="0.00 0.00 320.00 220.00" xmlns="http://www.w3.org/2000/svg" xmlns:xlink="http://www.w3.org/1999/xlink">
<g id="graph0" class="graph" transform="scale(1 1) rotate(0) translate(4 216)">
<title>abc</title>
<polygon fill="white" stroke="transparent" points="-4,4 -4,-216 316,-216 316,4 -4,4"/>
<g id="clust1" class="cluster">
<title>cluster_while</title>
<polygon fill="none" stroke="black" points="8,-8 8,-204 304,-204 304,-8 8,-8"/>
</g>
<!-- entry -->
<g id="node1" class="node">
<title>entry</title>
<polygon fill="none" stroke="black" points="224,-196 170,-196 170,-160 224,-160 224,-196"/>
<text text-anchor="middle" x="197" y="-174.3" font-family="Times,serif" font-size="14.00">f(x)</text>
</g>
<!-- cond -->
<g id="node2" class="node">
<title>cond</title>
<polygon fill="none" stroke="black" points="151.5,-124 16.5,-124 16.5,-88 151.5,-88 151.5,-124"/>
<text text-anchor="middle" x="84" y="-102.3" font-family="Times,serif" font-size="14.00">x == 1 || x == 2</text>
</g>
<!-- entry&#45;&gt;cond -->
<g id="edge1" class="edge">
<title>entry&#45;&gt;cond</title>
<path fill="none" stroke="red" d="M169.93,-160.23C155.06,-151.02 136.41,-139.47 120.29,-129.48"/>
<polygon fill="red" stroke="red" points="121.97,-126.41 111.63,-124.12 118.29,-132.36 121.97,-126.41"/>
</g>
<!-- re1 -->
<g id="node4" class="node">
<title>re1</title>
<polygon fill="none" stroke="black" points="224,-124 170,-124 170,-88 224,-88 224,-124"/>
<text text-anchor="middle" x="197" y="-102.3" font-family="Times,serif" font-size="14.00">f(x&#45;1)</text>
</g>
<!-- entry&#45;&gt;re1 -->
<g id="edge4" class="edge">
<title>entry&#45;&gt;re1</title>
<path fill="none" stroke="black" d="M197,-149.67C197,-141.05 197,-131.79 197,-124.1"/>
<polygon fill="black" stroke="black" points="193.5,-149.7 197,-159.7 200.5,-149.7 193.5,-149.7"/>
</g>
<!-- re2 -->
<g id="node5" class="node">
<title>re2</title>
<polygon fill="none" stroke="black" points="296,-124 242,-124 242,-88 296,-88 296,-124"/>
<text text-anchor="middle" x="269" y="-102.3" font-family="Times,serif" font-size="14.00">f(x&#45;2)</text>
</g>
<!-- entry&#45;&gt;re2 -->
<g id="edge6" class="edge">
<title>entry&#45;&gt;re2</title>
<path fill="none" stroke="black" d="M222.22,-152.48C231.86,-143.11 242.63,-132.64 251.41,-124.1"/>
<polygon fill="black" stroke="black" points="219.53,-150.22 214.8,-159.7 224.41,-155.24 219.53,-150.22"/>
</g>
<!-- base -->
<g id="node3" class="node">
<title>base</title>
<polygon fill="none" stroke="black" points="121.5,-52 46.5,-52 46.5,-16 121.5,-16 121.5,-52"/>
<text text-anchor="middle" x="84" y="-30.3" font-family="Times,serif" font-size="14.00">return x</text>
</g>
<!-- cond&#45;&gt;base -->
<g id="edge2" class="edge">
<title>cond&#45;&gt;base</title>
<path fill="none" stroke="red" d="M84,-87.7C84,-79.98 84,-70.71 84,-62.11"/>
<polygon fill="red" stroke="red" points="87.5,-62.1 84,-52.1 80.5,-62.1 87.5,-62.1"/>
</g>
<!-- return -->
<g id="node6" class="node">
<title>return</title>
<polygon fill="none" stroke="black" points="253.5,-52 140.5,-52 140.5,-16 253.5,-16 253.5,-52"/>
<text text-anchor="middle" x="197" y="-30.3" font-family="Times,serif" font-size="14.00">f(x&#45;1) + f(x&#45;2)</text>
</g>
<!-- cond&#45;&gt;return -->
<g id="edge3" class="edge">
<title>cond&#45;&gt;return</title>
<path fill="none" stroke="red" d="M111.64,-87.88C126.42,-78.72 144.79,-67.34 160.7,-57.48"/>
<polygon fill="red" stroke="red" points="162.59,-60.43 169.25,-52.19 158.91,-54.48 162.59,-60.43"/>
</g>
<!-- re1&#45;&gt;return -->
<g id="edge5" class="edge">
<title>re1&#45;&gt;return</title>
<path fill="none" stroke="black" d="M197,-77.67C197,-69.05 197,-59.79 197,-52.1"/>
<polygon fill="black" stroke="black" points="193.5,-77.7 197,-87.7 200.5,-77.7 193.5,-77.7"/>
</g>
<!-- re2&#45;&gt;return -->
<g id="edge7" class="edge">
<title>re2&#45;&gt;return</title>
<path fill="none" stroke="black" d="M243.78,-80.48C234.14,-71.11 223.37,-60.64 214.59,-52.1"/>
<polygon fill="black" stroke="black" points="241.59,-83.24 251.2,-87.7 246.47,-78.22 241.59,-83.24"/>
</g>
</g>
</svg>
