<?xml version="1.0" encoding="UTF-8" standalone="no"?>
<!DOCTYPE svg PUBLIC "-//W3C//DTD SVG 1.1//EN"
 "http://www.w3.org/Graphics/SVG/1.1/DTD/svg11.dtd">
<!-- Generated by graphviz version 2.44.1 (20200704.0521)
 -->
<!-- Title: abc Pages: 1 -->
<svg width="246pt" height="220pt"
 viewBox="0.00 0.00 246.00 220.00" xmlns="http://www.w3.org/2000/svg" xmlns:xlink="http://www.w3.org/1999/xlink">
<g id="graph0" class="graph" transform="scale(1 1) rotate(0) translate(4 216)">
<title>abc</title>
<polygon fill="white" stroke="transparent" points="-4,4 -4,-216 242,-216 242,4 -4,4"/>
<g id="clust1" class="cluster">
<title>cluster_while</title>
<polygon fill="none" stroke="black" points="8,-8 8,-204 98,-204 98,-8 8,-8"/>
</g>
<!-- cond -->
<g id="node1" class="node">
<title>cond</title>
<polygon fill="none" stroke="black" points="89.5,-196 34.5,-196 34.5,-160 89.5,-160 89.5,-196"/>
<text text-anchor="middle" x="62" y="-174.3" font-family="Times,serif" font-size="14.00">a &gt; 4</text>
</g>
<!-- dec -->
<g id="node2" class="node">
<title>dec</title>
<polygon fill="none" stroke="black" points="70,-124 16,-124 16,-88 70,-88 70,-124"/>
<text text-anchor="middle" x="43" y="-102.3" font-family="Times,serif" font-size="14.00">a&#45;&#45;</text>
</g>
<!-- cond&#45;&gt;dec -->
<g id="edge3" class="edge">
<title>cond&#45;&gt;dec</title>
<path fill="none" stroke="red" d="M57.3,-159.7C55.19,-151.9 52.64,-142.51 50.28,-133.83"/>
<polygon fill="red" stroke="red" points="53.64,-132.84 47.64,-124.1 46.88,-134.67 53.64,-132.84"/>
</g>
<!-- other -->
<g id="node3" class="node">
<title>other</title>
<polygon fill="none" stroke="black" points="164,-124 108,-124 108,-88 164,-88 164,-124"/>
<text text-anchor="middle" x="136" y="-102.3" font-family="Times,serif" font-size="14.00">b = 4</text>
</g>
<!-- cond&#45;&gt;other -->
<g id="edge4" class="edge">
<title>cond&#45;&gt;other</title>
<path fill="none" stroke="red" d="M80.29,-159.7C89.43,-151.05 100.64,-140.45 110.6,-131.03"/>
<polygon fill="red" stroke="red" points="113.06,-133.52 117.92,-124.1 108.25,-128.43 113.06,-133.52"/>
</g>
<!-- entry -->
<g id="node5" class="node">
<title>entry</title>
<polygon fill="none" stroke="black" points="89.5,-52 34.5,-52 34.5,-16 89.5,-16 89.5,-52"/>
<text text-anchor="middle" x="62" y="-30.3" font-family="Times,serif" font-size="14.00">entry</text>
</g>
<!-- dec&#45;&gt;entry -->
<g id="edge5" class="edge">
<title>dec&#45;&gt;entry</title>
<path fill="none" stroke="red" d="M47.7,-87.7C49.81,-79.9 52.36,-70.51 54.72,-61.83"/>
<polygon fill="red" stroke="red" points="58.12,-62.67 57.36,-52.1 51.36,-60.84 58.12,-62.67"/>
</g>
<!-- start -->
<g id="node4" class="node">
<title>start</title>
<polygon fill="none" stroke="black" points="238,-124 182,-124 182,-88 238,-88 238,-124"/>
<text text-anchor="middle" x="210" y="-102.3" font-family="Times,serif" font-size="14.00">b = 3</text>
</g>
<!-- start&#45;&gt;entry -->
<g id="edge1" class="edge">
<title>start&#45;&gt;entry</title>
<path fill="none" stroke="red" d="M181.81,-91.67C158.21,-80.5 124.35,-64.49 98.65,-52.33"/>
<polygon fill="red" stroke="red" points="100.12,-49.16 89.58,-48.04 97.12,-55.48 100.12,-49.16"/>
</g>
<!-- entry&#45;&gt;cond -->
<g id="edge2" class="edge">
<title>entry&#45;&gt;cond</title>
<path fill="none" stroke="red" d="M69.07,-52.33C72.84,-62.53 77.09,-75.78 79,-88 81.47,-103.81 81.47,-108.19 79,-124 77.64,-132.69 75.1,-141.9 72.39,-150.16"/>
<polygon fill="red" stroke="red" points="69.06,-149.07 69.07,-159.67 75.67,-151.38 69.06,-149.07"/>
</g>
</g>
</svg>
