<?xml version="1.0" encoding="UTF-8" standalone="no"?>
<!DOCTYPE svg PUBLIC "-//W3C//DTD SVG 1.1//EN"
 "http://www.w3.org/Graphics/SVG/1.1/DTD/svg11.dtd">
<!-- Generated by graphviz version 2.44.1 (20200704.0521)
 -->
<!-- Title: abc Pages: 1 -->
<svg width="134pt" height="188pt"
 viewBox="0.00 0.00 134.00 188.00" xmlns="http://www.w3.org/2000/svg" xmlns:xlink="http://www.w3.org/1999/xlink">
<g id="graph0" class="graph" transform="scale(1 1) rotate(0) translate(4 184)">
<title>abc</title>
<polygon fill="white" stroke="transparent" points="-4,4 -4,-184 130,-184 130,4 -4,4"/>
<!-- 3 -->
<g id="node1" class="node">
<title>3</title>
<polygon fill="none" stroke="black" points="54,-180 0,-180 0,-144 54,-144 54,-180"/>
<text text-anchor="middle" x="27" y="-158.3" font-family="Times,serif" font-size="14.00">3</text>
</g>
<!-- add -->
<g id="node2" class="node">
<title>add</title>
<polygon fill="none" stroke="black" points="90,-108 36,-108 36,-72 90,-72 90,-108"/>
<text text-anchor="middle" x="63" y="-86.3" font-family="Times,serif" font-size="14.00">add</text>
</g>
<!-- 3&#45;&gt;add -->
<g id="edge1" class="edge">
<title>3&#45;&gt;add</title>
<path fill="none" stroke="black" d="M40.48,-134.8C45.07,-125.87 50.08,-116.13 54.2,-108.1"/>
<polygon fill="black" stroke="black" points="37.36,-133.2 35.9,-143.7 43.58,-136.4 37.36,-133.2"/>
</g>
<!-- a -->
<g id="node4" class="node">
<title>a</title>
<polygon fill="none" stroke="black" points="90,-36 36,-36 36,0 90,0 90,-36"/>
<text text-anchor="middle" x="63" y="-14.3" font-family="Times,serif" font-size="14.00">a</text>
</g>
<!-- add&#45;&gt;a -->
<g id="edge3" class="edge">
<title>add&#45;&gt;a</title>
<path fill="none" stroke="black" d="M63,-61.67C63,-53.05 63,-43.79 63,-36.1"/>
<polygon fill="black" stroke="black" points="59.5,-61.7 63,-71.7 66.5,-61.7 59.5,-61.7"/>
</g>
<!-- 4 -->
<g id="node3" class="node">
<title>4</title>
<polygon fill="none" stroke="black" points="126,-180 72,-180 72,-144 126,-144 126,-180"/>
<text text-anchor="middle" x="99" y="-158.3" font-family="Times,serif" font-size="14.00">4</text>
</g>
<!-- 4&#45;&gt;add -->
<g id="edge2" class="edge">
<title>4&#45;&gt;add</title>
<path fill="none" stroke="black" d="M85.52,-134.8C80.93,-125.87 75.92,-116.13 71.8,-108.1"/>
<polygon fill="black" stroke="black" points="82.42,-136.4 90.1,-143.7 88.64,-133.2 82.42,-136.4"/>
</g>
</g>
</svg>
