<?xml version="1.0" encoding="UTF-8" standalone="no"?>
<!DOCTYPE svg PUBLIC "-//W3C//DTD SVG 1.1//EN"
 "http://www.w3.org/Graphics/SVG/1.1/DTD/svg11.dtd">
<!-- Generated by graphviz version 2.44.1 (20200704.0521)
 -->
<!-- Title: abc Pages: 1 -->
<svg width="254pt" height="332pt"
 viewBox="0.00 0.00 253.50 332.00" xmlns="http://www.w3.org/2000/svg" xmlns:xlink="http://www.w3.org/1999/xlink">
<g id="graph0" class="graph" transform="scale(1 1) rotate(0) translate(4 328)">
<title>abc</title>
<polygon fill="white" stroke="transparent" points="-4,4 -4,-328 249.5,-328 249.5,4 -4,4"/>
<!-- a_0 -->
<g id="node1" class="node">
<title>a_0</title>
<polygon fill="none" stroke="black" points="183,-252 112,-252 112,-216 183,-216 183,-252"/>
<text text-anchor="middle" x="147.5" y="-230.3" font-family="Times,serif" font-size="14.00">a_0 = 1</text>
</g>
<!-- a_1 -->
<g id="node2" class="node">
<title>a_1</title>
<polygon fill="none" stroke="black" points="117,-108 0,-108 0,-72 117,-72 117,-108"/>
<text text-anchor="middle" x="58.5" y="-86.3" font-family="Times,serif" font-size="14.00">a_1 = a_0 + 1</text>
</g>
<!-- a_0&#45;&gt;a_1 -->
<g id="edge3" class="edge">
<title>a_0&#45;&gt;a_1</title>
<path fill="none" stroke="black" d="M142.19,-205.92C137.69,-187.39 129.92,-162.88 117.5,-144 108.34,-130.08 94.66,-117.48 82.78,-108.06"/>
<polygon fill="black" stroke="black" points="138.81,-206.8 144.43,-215.78 145.63,-205.25 138.81,-206.8"/>
</g>
<!-- a_2 -->
<g id="node3" class="node">
<title>a_2</title>
<polygon fill="none" stroke="black" points="245.5,-108 135.5,-108 135.5,-72 245.5,-72 245.5,-108"/>
<text text-anchor="middle" x="190.5" y="-86.3" font-family="Times,serif" font-size="14.00">a_2 = a_0 &#45; 1</text>
</g>
<!-- a_0&#45;&gt;a_2 -->
<g id="edge5" class="edge">
<title>a_0&#45;&gt;a_2</title>
<path fill="none" stroke="black" d="M155.66,-206.06C164.37,-177.28 177.92,-132.53 185.29,-108.19"/>
<polygon fill="black" stroke="black" points="152.24,-205.29 152.69,-215.87 158.93,-207.32 152.24,-205.29"/>
</g>
<!-- cond -->
<g id="node4" class="node">
<title>cond</title>
<polygon fill="none" stroke="black" points="109,-180 38,-180 38,-144 109,-144 109,-180"/>
<text text-anchor="middle" x="73.5" y="-158.3" font-family="Times,serif" font-size="14.00">a_0 &gt; 5</text>
</g>
<!-- a_0&#45;&gt;cond -->
<g id="edge7" class="edge">
<title>a_0&#45;&gt;cond</title>
<path fill="none" stroke="red" d="M129.21,-215.7C120.07,-207.05 108.86,-196.45 98.9,-187.03"/>
<polygon fill="red" stroke="red" points="101.25,-184.43 91.58,-180.1 96.44,-189.52 101.25,-184.43"/>
</g>
<!-- merge -->
<g id="node5" class="node">
<title>merge</title>
<polygon fill="none" stroke="black" points="201.5,-36 47.5,-36 47.5,0 201.5,0 201.5,-36"/>
<text text-anchor="middle" x="124.5" y="-14.3" font-family="Times,serif" font-size="14.00">a_3 = phi(a_1, a_2)</text>
</g>
<!-- a_1&#45;&gt;merge -->
<g id="edge10" class="edge">
<title>a_1&#45;&gt;merge</title>
<path fill="none" stroke="red" d="M74.81,-71.7C82.81,-63.22 92.57,-52.86 101.32,-43.58"/>
<polygon fill="red" stroke="red" points="104.06,-45.78 108.37,-36.1 98.97,-40.98 104.06,-45.78"/>
</g>
<!-- a_2&#45;&gt;merge -->
<g id="edge11" class="edge">
<title>a_2&#45;&gt;merge</title>
<path fill="none" stroke="red" d="M174.19,-71.7C166.19,-63.22 156.43,-52.86 147.68,-43.58"/>
<polygon fill="red" stroke="red" points="150.03,-40.98 140.63,-36.1 144.94,-45.78 150.03,-40.98"/>
</g>
<!-- cond&#45;&gt;a_1 -->
<g id="edge8" class="edge">
<title>cond&#45;&gt;a_1</title>
<path fill="none" stroke="red" d="M69.79,-143.7C68.14,-135.98 66.15,-126.71 64.31,-118.11"/>
<polygon fill="red" stroke="red" points="67.68,-117.15 62.17,-108.1 60.84,-118.62 67.68,-117.15"/>
</g>
<!-- cond&#45;&gt;a_2 -->
<g id="edge9" class="edge">
<title>cond&#45;&gt;a_2</title>
<path fill="none" stroke="red" d="M102.12,-143.88C117.42,-134.72 136.44,-123.34 152.92,-113.48"/>
<polygon fill="red" stroke="red" points="154.98,-116.33 161.77,-108.19 151.39,-110.32 154.98,-116.33"/>
</g>
<!-- 1 -->
<g id="node6" class="node">
<title>1</title>
<polygon fill="none" stroke="black" points="174.5,-324 120.5,-324 120.5,-288 174.5,-288 174.5,-324"/>
<text text-anchor="middle" x="147.5" y="-302.3" font-family="Times,serif" font-size="14.00">1</text>
</g>
<!-- 1&#45;&gt;a_0 -->
<g id="edge1" class="edge">
<title>1&#45;&gt;a_0</title>
<path fill="none" stroke="black" d="M147.5,-277.67C147.5,-269.05 147.5,-259.79 147.5,-252.1"/>
<polygon fill="black" stroke="black" points="144,-277.7 147.5,-287.7 151,-277.7 144,-277.7"/>
</g>
<!-- 1&#45;&gt;a_1 -->
<g id="edge2" class="edge">
<title>1&#45;&gt;a_1</title>
<path fill="none" stroke="black" d="M110.42,-298.87C83.33,-292.27 48.34,-278.84 30.5,-252 3.93,-212.02 16.27,-190.42 28.5,-144 31.89,-131.12 39.21,-118.08 45.77,-108.15"/>
<polygon fill="black" stroke="black" points="109.84,-302.33 120.36,-301.08 111.36,-295.5 109.84,-302.33"/>
</g>
<!-- 1&#45;&gt;a_2 -->
<g id="edge4" class="edge">
<title>1&#45;&gt;a_2</title>
<path fill="none" stroke="black" d="M173.83,-280.48C180.96,-272.2 187.75,-262.4 191.5,-252 209.44,-202.31 200.34,-138.24 194.36,-108.1"/>
<polygon fill="black" stroke="black" points="171.18,-278.19 166.97,-287.92 176.33,-282.94 171.18,-278.19"/>
</g>
<!-- 5 -->
<g id="node7" class="node">
<title>5</title>
<polygon fill="none" stroke="black" points="93.5,-252 39.5,-252 39.5,-216 93.5,-216 93.5,-252"/>
<text text-anchor="middle" x="66.5" y="-230.3" font-family="Times,serif" font-size="14.00">5</text>
</g>
<!-- 5&#45;&gt;cond -->
<g id="edge6" class="edge">
<title>5&#45;&gt;cond</title>
<path fill="none" stroke="black" d="M69.23,-205.67C70.09,-197.05 71.02,-187.79 71.79,-180.1"/>
<polygon fill="black" stroke="black" points="65.74,-205.4 68.23,-215.7 72.71,-206.09 65.74,-205.4"/>
</g>
</g>
</svg>
