<?xml version="1.0" encoding="UTF-8" standalone="no"?>
<!DOCTYPE svg PUBLIC "-//W3C//DTD SVG 1.1//EN"
 "http://www.w3.org/Graphics/SVG/1.1/DTD/svg11.dtd">
<!-- Generated by graphviz version 2.44.1 (20200704.0521)
 -->
<!-- Title: abc Pages: 1 -->
<svg width="220pt" height="220pt"
 viewBox="0.00 0.00 220.00 220.00" xmlns="http://www.w3.org/2000/svg" xmlns:xlink="http://www.w3.org/1999/xlink">
<g id="graph0" class="graph" transform="scale(1 1) rotate(0) translate(4 216)">
<title>abc</title>
<polygon fill="white" stroke="transparent" points="-4,4 -4,-216 216,-216 216,4 -4,4"/>
<g id="clust1" class="cluster">
<title>cluster_while</title>
<polygon fill="none" stroke="black" points="8,-8 8,-204 204,-204 204,-8 8,-8"/>
</g>
<!-- entry -->
<g id="node1" class="node">
<title>entry</title>
<polygon fill="none" stroke="black" points="128.5,-196 63.5,-196 63.5,-160 128.5,-160 128.5,-196"/>
<text text-anchor="middle" x="96" y="-174.3" font-family="Times,serif" font-size="14.00">sum(x)</text>
</g>
<!-- cond -->
<g id="node2" class="node">
<title>cond</title>
<polygon fill="none" stroke="black" points="84.5,-124 17.5,-124 17.5,-88 84.5,-88 84.5,-124"/>
<text text-anchor="middle" x="51" y="-102.3" font-family="Times,serif" font-size="14.00">x == 1</text>
</g>
<!-- entry&#45;&gt;cond -->
<g id="edge1" class="edge">
<title>entry&#45;&gt;cond</title>
<path fill="none" stroke="red" d="M84.88,-159.7C79.64,-151.56 73.3,-141.69 67.52,-132.7"/>
<polygon fill="red" stroke="red" points="70.35,-130.62 62,-124.1 64.46,-134.41 70.35,-130.62"/>
</g>
<!-- recursion -->
<g id="node4" class="node">
<title>recursion</title>
<polygon fill="none" stroke="black" points="181.5,-124 102.5,-124 102.5,-88 181.5,-88 181.5,-124"/>
<text text-anchor="middle" x="142" y="-102.3" font-family="Times,serif" font-size="14.00">sum(x&#45;1)</text>
</g>
<!-- entry&#45;&gt;recursion -->
<g id="edge4" class="edge">
<title>entry&#45;&gt;recursion</title>
<path fill="none" stroke="black" d="M113.03,-151.08C118.95,-142.08 125.43,-132.21 130.76,-124.1"/>
<polygon fill="black" stroke="black" points="109.94,-149.42 107.37,-159.7 115.79,-153.26 109.94,-149.42"/>
</g>
<!-- base -->
<g id="node3" class="node">
<title>base</title>
<polygon fill="none" stroke="black" points="70,-52 16,-52 16,-16 70,-16 70,-52"/>
<text text-anchor="middle" x="43" y="-30.3" font-family="Times,serif" font-size="14.00">1</text>
</g>
<!-- cond&#45;&gt;base -->
<g id="edge2" class="edge">
<title>cond&#45;&gt;base</title>
<path fill="none" stroke="red" d="M49.02,-87.7C48.14,-79.98 47.08,-70.71 46.1,-62.11"/>
<polygon fill="red" stroke="red" points="49.57,-61.64 44.95,-52.1 42.61,-62.44 49.57,-61.64"/>
</g>
<!-- return -->
<g id="node5" class="node">
<title>return</title>
<polygon fill="none" stroke="black" points="196,-52 88,-52 88,-16 196,-16 196,-52"/>
<text text-anchor="middle" x="142" y="-30.3" font-family="Times,serif" font-size="14.00">sum(x&#45;1) + x</text>
</g>
<!-- cond&#45;&gt;return -->
<g id="edge3" class="edge">
<title>cond&#45;&gt;return</title>
<path fill="none" stroke="red" d="M73.49,-87.7C84.96,-78.88 99.06,-68.03 111.48,-58.47"/>
<polygon fill="red" stroke="red" points="113.97,-60.98 119.76,-52.1 109.7,-55.43 113.97,-60.98"/>
</g>
<!-- recursion&#45;&gt;return -->
<g id="edge5" class="edge">
<title>recursion&#45;&gt;return</title>
<path fill="none" stroke="black" d="M142,-77.67C142,-69.05 142,-59.79 142,-52.1"/>
<polygon fill="black" stroke="black" points="138.5,-77.7 142,-87.7 145.5,-77.7 138.5,-77.7"/>
</g>
</g>
</svg>
