<?xml version="1.0" encoding="UTF-8" standalone="no"?>
<!DOCTYPE svg PUBLIC "-//W3C//DTD SVG 1.1//EN"
 "http://www.w3.org/Graphics/SVG/1.1/DTD/svg11.dtd">
<!-- Generated by graphviz version 2.44.1 (20200704.0521)
 -->
<!-- Title: a Pages: 1 -->
<svg width="449pt" height="278pt"
 viewBox="0.00 0.00 449.00 277.50" xmlns="http://www.w3.org/2000/svg" xmlns:xlink="http://www.w3.org/1999/xlink">
<g id="graph0" class="graph" transform="scale(1 1) rotate(0) translate(4 273.5)">
<title>a</title>
<polygon fill="white" stroke="transparent" points="-4,4 -4,-273.5 445,-273.5 445,4 -4,4"/>
<!-- mm_struct -->
<g id="node1" class="node">
<title>mm_struct</title>
<polygon fill="none" stroke="black" points="0,-44.5 0,-228.5 252,-228.5 252,-44.5 0,-44.5"/>
<text text-anchor="middle" x="126" y="-213.3" font-family="Times,serif" font-size="14.00">mm_struct</text>
<polyline fill="none" stroke="black" points="0,-205.5 252,-205.5 "/>
<text text-anchor="middle" x="126" y="-190.3" font-family="Times,serif" font-size="14.00">Linux Memory Descriptor Struct</text>
<polyline fill="none" stroke="black" points="0,-182.5 252,-182.5 "/>
<text text-anchor="middle" x="126" y="-167.3" font-family="Times,serif" font-size="14.00"> </text>
<polyline fill="none" stroke="black" points="0,-159.5 252,-159.5 "/>
<text text-anchor="middle" x="126" y="-144.3" font-family="Times,serif" font-size="14.00">stack</text>
<polyline fill="none" stroke="black" points="0,-136.5 252,-136.5 "/>
<text text-anchor="middle" x="126" y="-121.3" font-family="Times,serif" font-size="14.00">mmap</text>
<polyline fill="none" stroke="black" points="0,-113.5 252,-113.5 "/>
<text text-anchor="middle" x="126" y="-98.3" font-family="Times,serif" font-size="14.00">brk</text>
<polyline fill="none" stroke="black" points="0,-90.5 252,-90.5 "/>
<text text-anchor="middle" x="126" y="-75.3" font-family="Times,serif" font-size="14.00">data</text>
<polyline fill="none" stroke="black" points="0,-67.5 252,-67.5 "/>
<text text-anchor="middle" x="126" y="-52.3" font-family="Times,serif" font-size="14.00">code</text>
</g>
<!-- stack -->
<g id="node2" class="node">
<title>stack</title>
<polygon fill="none" stroke="black" points="288,-200 288,-269 441,-269 441,-200 288,-200"/>
<text text-anchor="middle" x="364.5" y="-253.8" font-family="Times,serif" font-size="14.00">call_frame_1</text>
<polyline fill="none" stroke="black" points="288,-246 441,-246 "/>
<text text-anchor="middle" x="364.5" y="-230.8" font-family="Times,serif" font-size="14.00">...</text>
<polyline fill="none" stroke="black" points="288,-223 441,-223 "/>
<text text-anchor="middle" x="364.5" y="-207.8" font-family="Times,serif" font-size="14.00">call_frame_current</text>
</g>
<!-- mm_struct&#45;&gt;stack -->
<g id="edge1" class="edge">
<title>mm_struct:f1&#45;&gt;stack</title>
<path fill="none" stroke="black" d="M252,-148.5C276.59,-148.5 269.12,-174.76 288,-190.5 289.32,-191.6 290.67,-192.69 292.05,-193.77"/>
<polygon fill="black" stroke="black" points="290.08,-196.66 300.19,-199.8 294.24,-191.04 290.08,-196.66"/>
</g>
<!-- heap -->
<g id="node3" class="node">
<title>heap</title>
<polygon fill="none" stroke="black" points="303.5,-112 303.5,-181 425.5,-181 425.5,-112 303.5,-112"/>
<text text-anchor="middle" x="364.5" y="-165.8" font-family="Times,serif" font-size="14.00">uint8[8]</text>
<polyline fill="none" stroke="black" points="303.5,-158 425.5,-158 "/>
<text text-anchor="middle" x="364.5" y="-142.8" font-family="Times,serif" font-size="14.00">MyStruct[128]</text>
<polyline fill="none" stroke="black" points="303.5,-135 425.5,-135 "/>
<text text-anchor="middle" x="364.5" y="-119.8" font-family="Times,serif" font-size="14.00">...</text>
</g>
<!-- mm_struct&#45;&gt;heap -->
<g id="edge2" class="edge">
<title>mm_struct:f3&#45;&gt;heap</title>
<path fill="none" stroke="black" d="M252,-101.5C265.94,-101.5 280.2,-104.56 293.66,-109.09"/>
<polygon fill="black" stroke="black" points="292.71,-112.47 303.3,-112.62 295.11,-105.9 292.71,-112.47"/>
</g>
<!-- ELF -->
<g id="node4" class="node">
<title>ELF</title>
<polygon fill="none" stroke="black" points="293,-0.5 293,-92.5 436,-92.5 436,-0.5 293,-0.5"/>
<text text-anchor="middle" x="364.5" y="-77.3" font-family="Times,serif" font-size="14.00">Excutatble File</text>
<polyline fill="none" stroke="black" points="293,-69.5 436,-69.5 "/>
<text text-anchor="middle" x="364.5" y="-54.3" font-family="Times,serif" font-size="14.00"> </text>
<polyline fill="none" stroke="black" points="293,-46.5 436,-46.5 "/>
<text text-anchor="middle" x="364.5" y="-31.3" font-family="Times,serif" font-size="14.00">bss/data segment</text>
<polyline fill="none" stroke="black" points="293,-23.5 436,-23.5 "/>
<text text-anchor="middle" x="364.5" y="-8.3" font-family="Times,serif" font-size="14.00">text segment</text>
</g>
<!-- mm_struct&#45;&gt;ELF -->
<g id="edge3" class="edge">
<title>mm_struct:f4&#45;&gt;ELF:f0</title>
<path fill="none" stroke="black" d="M252,-78.5C274.17,-78.5 268.34,-47.18 281.76,-37.39"/>
<polygon fill="black" stroke="black" points="282.91,-40.7 291.5,-34.5 280.92,-33.99 282.91,-40.7"/>
</g>
<!-- mm_struct&#45;&gt;ELF -->
<g id="edge4" class="edge">
<title>mm_struct:f5&#45;&gt;ELF:f1</title>
<path fill="none" stroke="black" d="M252,-55.5C274.17,-55.5 268.34,-24.18 281.76,-14.39"/>
<polygon fill="black" stroke="black" points="282.91,-17.7 291.5,-11.5 280.92,-10.99 282.91,-17.7"/>
</g>
</g>
</svg>
