<?xml version="1.0" encoding="UTF-8" standalone="no"?>
<!DOCTYPE svg PUBLIC "-//W3C//DTD SVG 1.1//EN"
 "http://www.w3.org/Graphics/SVG/1.1/DTD/svg11.dtd">
<!-- Generated by graphviz version 2.44.1 (20200704.0521)
 -->
<!-- Title: a Pages: 1 -->
<svg width="261pt" height="170pt"
 viewBox="0.00 0.00 261.00 170.00" xmlns="http://www.w3.org/2000/svg" xmlns:xlink="http://www.w3.org/1999/xlink">
<g id="graph0" class="graph" transform="scale(1 1) rotate(0) translate(4 166)">
<title>a</title>
<polygon fill="white" stroke="transparent" points="-4,4 -4,-166 257,-166 257,4 -4,4"/>
<!-- stack1 -->
<g id="node1" class="node">
<title>stack1</title>
<polygon fill="none" stroke="black" points="0,-23.5 0,-138.5 54,-138.5 54,-23.5 0,-23.5"/>
<text text-anchor="middle" x="27" y="-123.3" font-family="Times,serif" font-size="14.00">...</text>
<polyline fill="none" stroke="black" points="0,-115.5 54,-115.5 "/>
<text text-anchor="middle" x="27" y="-100.3" font-family="Times,serif" font-size="14.00">f()</text>
<polyline fill="none" stroke="black" points="0,-92.5 54,-92.5 "/>
<text text-anchor="middle" x="27" y="-77.3" font-family="Times,serif" font-size="14.00">int: a</text>
<polyline fill="none" stroke="black" points="0,-69.5 54,-69.5 "/>
<text text-anchor="middle" x="27" y="-54.3" font-family="Times,serif" font-size="14.00">int: ?</text>
<polyline fill="none" stroke="black" points="0,-46.5 54,-46.5 "/>
<text text-anchor="middle" x="27" y="-31.3" font-family="Times,serif" font-size="14.00">...</text>
</g>
<!-- stack2 -->
<g id="node2" class="node">
<title>stack2</title>
<polygon fill="none" stroke="black" points="90,-0.5 90,-161.5 144,-161.5 144,-0.5 90,-0.5"/>
<text text-anchor="middle" x="117" y="-146.3" font-family="Times,serif" font-size="14.00">...</text>
<polyline fill="none" stroke="black" points="90,-138.5 144,-138.5 "/>
<text text-anchor="middle" x="117" y="-123.3" font-family="Times,serif" font-size="14.00">f()</text>
<polyline fill="none" stroke="black" points="90,-115.5 144,-115.5 "/>
<text text-anchor="middle" x="117" y="-100.3" font-family="Times,serif" font-size="14.00">int: a</text>
<polyline fill="none" stroke="black" points="90,-92.5 144,-92.5 "/>
<text text-anchor="middle" x="117" y="-77.3" font-family="Times,serif" font-size="14.00">int: ?</text>
<polyline fill="none" stroke="black" points="90,-69.5 144,-69.5 "/>
<text text-anchor="middle" x="117" y="-54.3" font-family="Times,serif" font-size="14.00">g()</text>
<polyline fill="none" stroke="black" points="90,-46.5 144,-46.5 "/>
<text text-anchor="middle" x="117" y="-31.3" font-family="Times,serif" font-size="14.00">int: b</text>
<polyline fill="none" stroke="black" points="90,-23.5 144,-23.5 "/>
<text text-anchor="middle" x="117" y="-8.3" font-family="Times,serif" font-size="14.00">...</text>
</g>
<!-- stack1&#45;&gt;stack2 -->
<g id="edge1" class="edge">
<title>stack1&#45;&gt;stack2</title>
<path fill="none" stroke="black" d="M54.4,-81C62.39,-81 71.31,-81 79.82,-81"/>
<polygon fill="black" stroke="black" points="79.92,-84.5 89.92,-81 79.92,-77.5 79.92,-84.5"/>
</g>
<!-- stack3 -->
<g id="node3" class="node">
<title>stack3</title>
<polygon fill="none" stroke="black" points="180,-23.5 180,-138.5 253,-138.5 253,-23.5 180,-23.5"/>
<text text-anchor="middle" x="216.5" y="-123.3" font-family="Times,serif" font-size="14.00">...</text>
<polyline fill="none" stroke="black" points="180,-115.5 253,-115.5 "/>
<text text-anchor="middle" x="216.5" y="-100.3" font-family="Times,serif" font-size="14.00">f()</text>
<polyline fill="none" stroke="black" points="180,-92.5 253,-92.5 "/>
<text text-anchor="middle" x="216.5" y="-77.3" font-family="Times,serif" font-size="14.00">int: a</text>
<polyline fill="none" stroke="black" points="180,-69.5 253,-69.5 "/>
<text text-anchor="middle" x="216.5" y="-54.3" font-family="Times,serif" font-size="14.00">int: g(a)</text>
<polyline fill="none" stroke="black" points="180,-46.5 253,-46.5 "/>
<text text-anchor="middle" x="216.5" y="-31.3" font-family="Times,serif" font-size="14.00">...</text>
</g>
<!-- stack2&#45;&gt;stack3 -->
<g id="edge2" class="edge">
<title>stack2&#45;&gt;stack3</title>
<path fill="none" stroke="black" d="M144.13,-81C151.99,-81 160.87,-81 169.62,-81"/>
<polygon fill="black" stroke="black" points="169.77,-84.5 179.77,-81 169.77,-77.5 169.77,-84.5"/>
</g>
</g>
</svg>
