<svg xmlns="http://www.w3.org/2000/svg" id="图形" viewBox="0 0 400 400">
    <defs>
        <style>
            .cls-1{fill:#702080;}.cls-1,.cls-3{stroke:#fff;stroke-miterlimit:10;stroke-width:4px;}.cls-2{fill:#fff;}.cls-3{fill:#e04020;}
        </style>
    </defs>
    <title>
        IO 图标3
    </title>
    <path d="M234.433,31.935c1.064,5.288,1.854,10.657,3.367,15.813.426,1.453,2.815,2.811,4.565,3.322a153.351,153.351,0,0,1,63.9,36.776c2.669,2.552,5.312,2.724,8.629,1.321,10.264-4.34,20.579-8.568,30.993-12.529,1.241-.472,4.052.471,4.713,1.594,9.947,16.922,19.629,34,29.447,51,1.7,2.936.888,4.618-1.731,6.58-8,5.99-15.593,12.528-23.695,18.368-4.335,3.125-5.312,6.386-4.039,11.458,4.515,17.98,4.948,36.254,2.734,54.588-.655,5.424-1.906,10.789-3.1,16.132-.792,3.55.295,6.111,3.093,8.277,8.429,6.524,16.667,13.306,25.268,19.592,2.856,2.087,3.138,3.909,1.6,6.569q-14.5,25.069-29.031,50.119c-1.579,2.726-3.467,3.44-6.622,2.09-9.782-4.183-19.75-7.929-29.545-12.082-3.747-1.589-6.463-1-9.393,1.813A151.727,151.727,0,0,1,249.635,346.7c-1.416.493-2.824,1.022-4.269,1.413-7.9,2.135-7.846,2.129-8.919,10.066-1.317,9.741-2.857,19.454-4.045,29.211-.378,3.1-1.631,4.452-4.7,4.447q-29.245-.047-58.49.006c-3.522.01-4.591-1.362-4.995-4.974-1.219-10.917-3.154-21.752-4.632-32.642-.463-3.414-2.41-4.671-5.453-5.5a145.891,145.891,0,0,1-61.624-34.739c-4.087-3.81-7.429-4.882-12.7-2.405-9.025,4.244-18.514,7.49-27.637,11.54-4.289,1.9-5.818-.738-7.444-3.47-4.515-7.581-8.922-15.228-13.333-22.87-4.83-8.368-9.6-16.768-14.43-25.138-1.913-3.316-2.008-5.213,1.961-7.921,9.054-6.175,17.447-13.354,25.814-20.47,1.351-1.149,1.815-4.131,1.63-6.169-1.19-13.063-3.66-26.091-3.763-39.146-.088-11.2,2.123-22.474,3.938-33.615.662-4.064-.112-6.671-3.206-9.05-8.055-6.2-15.911-12.658-24.115-18.647-3.525-2.573-4.337-4.761-2.043-8.653q14.205-24.095,27.988-48.437c1.994-3.512,3.84-3.847,7.568-2.207,10.205,4.489,20.617,8.542,31.119,12.287,1.748.623,4.979-.513,6.47-1.939,15.044-14.386,32.487-24.871,51.74-32.484,4.172-1.65,8.472-3.008,12.781-4.271,2.928-.859,4.33-2.478,4.742-5.576,1.424-10.716,3.259-21.378,4.581-32.105.443-3.6,1.958-4.977,5.365-4.971,19.333.035,38.666-.045,58,.183,1.6.019,4.3,1.819,4.563,3.164,1.29,6.682,1.933,13.489,2.8,20.252Zm-36.2,55.656C136.577,87.436,83.9,137.526,85.257,202.714c1.3,62.413,54.147,111.585,116.8,109.779,61.056-1.759,110.6-53.007,109.481-114.594C310.416,136.492,259.121,86.553,198.231,87.59Z" class="cls-1"/>
    <circle cx="198" cy="200" r="114" class="cls-2"/>
    <path d="M198.212,292.428c-13.991,0-27.981.025-41.972-.02-2.971-.01-6.245.366-6.031-4.4.184-4.088.249-7.547,5.988-7.466,15.084.214,20.071-7.695,20.146-20.871.228-39.807.191-79.617.191-119.425a29.124,29.124,0,0,0-.93-7.9c-2.394-8.4-6.98-11.5-17.661-12.377-3.674-.3-7.463-.083-7.577-5.6-.127-6.123.695-7.265,6.918-7.268q41.224-.024,82.449-.023c5.8,0,9.05,5.775,5.989,10.818a4.213,4.213,0,0,1-2.829,1.457c-2.138.268-4.334.044-6.48.272-12.916,1.373-18.249,6.753-18.3,19.637-.173,39.809-.071,79.618-.072,119.428,0,.5.046,1,.07,1.5.735,15.25,5.71,20.027,21.036,20.2,6.882.078,6.885.36,7.307,6.319.328,4.62-1.686,5.741-5.768,5.71-14.156-.109-28.314-.042-42.471-.042Z" class="cls-3"/>
    <path d="M230.192,263.861V136.294c17.428,2.752,38.646,34.669,40.261,58.117C272.825,228.843,250.613,255.755,230.192,263.861Z" class="cls-3"/>
    <path d="M164.562,263.645c-26.182-14.506-43.843-43.993-37.123-78.126,4.21-21.384,24.471-46.93,37.123-47.573Z" class="cls-3"/>
</svg>

